# xmcd
#
# Track frame offsets: 
#        150
#        20435
#        52097
#        98016
#        126548
#        141345
#        161900
#        174841
#        196023
#        213365
#        235596
#        287226
#        297177
#
# Disc length: 4182 seconds
#
# Revision: 0
# Processed by: cddbd v1.5.2PL0 Copyright (c) Steve Scherf et al.
# Submitted via: ExactAudioCopy v0.99pb3
#
DISCID=bf10540d
DTITLE=Irek Dudek Big Band - Rawa Blues 1988-1990
DYEAR=2006
DGENRE=Blues Rock, Boogie, Neo Swing, Rock'n'Roll
TTITLE0=Tell Me Pretty Baby
TTITLE1=Something Must Have Changed
TTITLE2=One Day Hero
TTITLE3=Everyday I Have The Blues
TTITLE4=Gloria
TTITLE5=Everyday I Have The Blues
TTITLE6=Tell Me Pretty Baby
TTITLE7=Too Late
TTITLE8=Everything Must Change
TTITLE9=Dudi Boogie
TTITLE10=Something Must Have Changed
TTITLE11=Ain't No Need Her
TTITLE12=Przebierka
EXTD=
EXTT0=
EXTT1=
EXTT2=
EXTT3=
EXTT4=
EXTT5=
EXTT6=
EXTT7=
EXTT8=
EXTT9=
EXTT10=
EXTT11=
EXTT12=
PLAYORDER=
